<mxfile host="app.diagrams.net" agent="Mozilla/5.0 (Windows NT 10.0; Win64; x64) AppleWebKit/537.36 (KHTML, like Gecko) Chrome/136.0.0.0 Safari/537.36 Edg/136.0.0.0" version="27.0.4">
  <diagram id="piDafpqhtRUU5qUU-vj8" name="Page-1">
    <mxGraphModel dx="1508" dy="1020" grid="1" gridSize="10" guides="1" tooltips="1" connect="1" arrows="1" fold="1" page="1" pageScale="1" pageWidth="827" pageHeight="1169" math="0" shadow="0">
      <root>
        <mxCell id="0" />
        <mxCell id="1" parent="0" />
        <mxCell id="8962rQQDY3VNNf6We3Pp-1" value="" style="strokeWidth=1;shadow=0;dashed=0;align=center;html=1;shape=mxgraph.mockup.containers.browserWindow;rSize=0;strokeColor2=#008cff;strokeColor3=#c4c4c4;mainText=,;recursiveResize=0;strokeColor=none;fontColor=#FFFFFF;gradientColor=none;fillColor=light-dark(#FFFFFF,#FFFFFF);" parent="1" vertex="1">
          <mxGeometry x="150" y="240" width="1040" height="660" as="geometry" />
        </mxCell>
        <mxCell id="8962rQQDY3VNNf6We3Pp-2" value="Главное окно" style="strokeWidth=1;shadow=0;dashed=0;align=center;html=1;shape=mxgraph.mockup.containers.anchor;fontSize=17;fontColor=#666666;align=left;" parent="8962rQQDY3VNNf6We3Pp-1" vertex="1">
          <mxGeometry x="60" y="12" width="110" height="26" as="geometry" />
        </mxCell>
        <mxCell id="8962rQQDY3VNNf6We3Pp-4" value="" style="verticalLabelPosition=bottom;shadow=0;dashed=0;align=center;html=1;verticalAlign=top;strokeWidth=1;shape=mxgraph.mockup.containers.videoPlayer;strokeColor=#666666;strokeColor2=#008cff;strokeColor3=#c4c4c4;textColor=#666666;fillColor2=#008cff;barHeight=30;barPos=20;gradientColor=none;fillColor=light-dark(#FFFFFF,#FFFFFF);" parent="8962rQQDY3VNNf6We3Pp-1" vertex="1">
          <mxGeometry y="110" width="1040" height="590" as="geometry" />
        </mxCell>
        <mxCell id="8962rQQDY3VNNf6We3Pp-35" value="" style="verticalLabelPosition=bottom;shadow=0;dashed=0;align=center;html=1;verticalAlign=top;strokeWidth=1;shape=mxgraph.mockup.markup.line;strokeColor=#999999;fillColor=#008CFF;fontSize=13;fontColor=#0066CC;" parent="8962rQQDY3VNNf6We3Pp-1" vertex="1">
          <mxGeometry y="1180" width="1150" height="20" as="geometry" />
        </mxCell>
        <mxCell id="_jG7jabcSw_Z0dBJuUUV-1" value="&lt;font style=&quot;font-size: 36px; color: light-dark(rgb(0, 0, 0), rgb(0, 0, 0));&quot;&gt;Сатурн&lt;/font&gt;" style="rounded=0;whiteSpace=wrap;html=1;align=left;fillColor=light-dark(#FFFFFF,#FFFFFF);" parent="8962rQQDY3VNNf6We3Pp-1" vertex="1">
          <mxGeometry width="1040" height="110" as="geometry" />
        </mxCell>
        <mxCell id="_jG7jabcSw_Z0dBJuUUV-3" value="&lt;font style=&quot;font-size: 36px;&quot;&gt;Афиша&lt;/font&gt;" style="rounded=0;whiteSpace=wrap;html=1;fillColor=light-dark(#FFFFFF,#4D4D4D);fillStyle=auto;" parent="8962rQQDY3VNNf6We3Pp-1" vertex="1">
          <mxGeometry x="450" width="300" height="60" as="geometry" />
        </mxCell>
        <mxCell id="_jG7jabcSw_Z0dBJuUUV-41" value="&lt;span style=&quot;font-size: 36px;&quot;&gt;Расписание&lt;/span&gt;" style="rounded=0;whiteSpace=wrap;html=1;fillColor=light-dark(#FFFFFF,#4D4D4D);fillStyle=auto;" parent="8962rQQDY3VNNf6We3Pp-1" vertex="1">
          <mxGeometry x="750" width="290" height="60" as="geometry" />
        </mxCell>
        <mxCell id="_jG7jabcSw_Z0dBJuUUV-71" value="" style="rounded=0;whiteSpace=wrap;html=1;strokeColor=light-dark(#000000,#FFFFFF);fillColor=light-dark(#FFFFFF,#FFFFFF);" parent="8962rQQDY3VNNf6We3Pp-1" vertex="1">
          <mxGeometry y="660" width="1040" height="40" as="geometry" />
        </mxCell>
        <mxCell id="_jG7jabcSw_Z0dBJuUUV-43" value="" style="strokeWidth=1;shadow=0;dashed=0;align=center;html=1;shape=mxgraph.mockup.containers.browserWindow;rSize=0;strokeColor2=#008cff;strokeColor3=#c4c4c4;mainText=,;recursiveResize=0;strokeColor=none;fontColor=#FFFFFF;gradientColor=none;fillColor=default;" parent="1" vertex="1">
          <mxGeometry x="720" y="2470" width="1040" height="1290" as="geometry" />
        </mxCell>
        <mxCell id="_jG7jabcSw_Z0dBJuUUV-44" value="Главное окно" style="strokeWidth=1;shadow=0;dashed=0;align=center;html=1;shape=mxgraph.mockup.containers.anchor;fontSize=17;fontColor=#666666;align=left;" parent="_jG7jabcSw_Z0dBJuUUV-43" vertex="1">
          <mxGeometry x="60" y="12" width="110" height="26" as="geometry" />
        </mxCell>
        <mxCell id="_jG7jabcSw_Z0dBJuUUV-45" value="" style="verticalLabelPosition=bottom;shadow=0;dashed=0;align=center;html=1;verticalAlign=top;strokeWidth=1;shape=mxgraph.mockup.containers.videoPlayer;strokeColor=#666666;strokeColor2=#008cff;strokeColor3=#c4c4c4;textColor=#666666;fillColor2=#008cff;barHeight=30;barPos=20;gradientColor=none;fillColor=light-dark(#FFFFFF,#FFFFFF);" parent="_jG7jabcSw_Z0dBJuUUV-43" vertex="1">
          <mxGeometry y="110" width="1040" height="590" as="geometry" />
        </mxCell>
        <mxCell id="_jG7jabcSw_Z0dBJuUUV-46" value="Try now" style="rounded=1;align=center;strokeColor=none;html=1;fontColor=#ffffff;fontSize=12;fillColor=#008CFF;" parent="_jG7jabcSw_Z0dBJuUUV-43" vertex="1">
          <mxGeometry x="1045" y="127" width="86" height="33" as="geometry" />
        </mxCell>
        <mxCell id="_jG7jabcSw_Z0dBJuUUV-47" value="" style="verticalLabelPosition=bottom;shadow=0;dashed=0;align=center;html=1;verticalAlign=top;strokeWidth=1;shape=mxgraph.mockup.graphics.simpleIcon;strokeColor=#999999;fontSize=13;fontColor=#0066CC;" parent="_jG7jabcSw_Z0dBJuUUV-43" vertex="1">
          <mxGeometry x="680" y="800" width="50" height="50" as="geometry" />
        </mxCell>
        <mxCell id="_jG7jabcSw_Z0dBJuUUV-48" value="" style="verticalLabelPosition=bottom;shadow=0;dashed=0;align=center;html=1;verticalAlign=top;strokeWidth=1;shape=mxgraph.mockup.graphics.simpleIcon;strokeColor=#999999;fontSize=13;fontColor=#0066CC;" parent="_jG7jabcSw_Z0dBJuUUV-43" vertex="1">
          <mxGeometry x="780" y="800" width="50" height="50" as="geometry" />
        </mxCell>
        <mxCell id="_jG7jabcSw_Z0dBJuUUV-49" value="" style="verticalLabelPosition=bottom;shadow=0;dashed=0;align=center;html=1;verticalAlign=top;strokeWidth=1;shape=mxgraph.mockup.graphics.simpleIcon;strokeColor=#999999;fontSize=13;fontColor=#0066CC;" parent="_jG7jabcSw_Z0dBJuUUV-43" vertex="1">
          <mxGeometry x="880" y="800" width="50" height="50" as="geometry" />
        </mxCell>
        <mxCell id="_jG7jabcSw_Z0dBJuUUV-50" value="" style="verticalLabelPosition=bottom;shadow=0;dashed=0;align=center;html=1;verticalAlign=top;strokeWidth=1;shape=mxgraph.mockup.graphics.simpleIcon;strokeColor=#999999;fontSize=13;fontColor=#0066CC;" parent="_jG7jabcSw_Z0dBJuUUV-43" vertex="1">
          <mxGeometry x="680" y="890" width="50" height="50" as="geometry" />
        </mxCell>
        <mxCell id="_jG7jabcSw_Z0dBJuUUV-51" value="" style="verticalLabelPosition=bottom;shadow=0;dashed=0;align=center;html=1;verticalAlign=top;strokeWidth=1;shape=mxgraph.mockup.graphics.simpleIcon;strokeColor=#999999;fontSize=13;fontColor=#0066CC;" parent="_jG7jabcSw_Z0dBJuUUV-43" vertex="1">
          <mxGeometry x="780" y="890" width="50" height="50" as="geometry" />
        </mxCell>
        <mxCell id="_jG7jabcSw_Z0dBJuUUV-52" value="" style="verticalLabelPosition=bottom;shadow=0;dashed=0;align=center;html=1;verticalAlign=top;strokeWidth=1;shape=mxgraph.mockup.graphics.simpleIcon;strokeColor=#999999;fontSize=13;fontColor=#0066CC;" parent="_jG7jabcSw_Z0dBJuUUV-43" vertex="1">
          <mxGeometry x="880" y="890" width="50" height="50" as="geometry" />
        </mxCell>
        <mxCell id="_jG7jabcSw_Z0dBJuUUV-53" value="" style="verticalLabelPosition=bottom;shadow=0;dashed=0;align=center;html=1;verticalAlign=top;strokeWidth=1;shape=mxgraph.mockup.graphics.simpleIcon;strokeColor=#999999;fontSize=13;fontColor=#0066CC;" parent="_jG7jabcSw_Z0dBJuUUV-43" vertex="1">
          <mxGeometry x="680" y="980" width="50" height="50" as="geometry" />
        </mxCell>
        <mxCell id="_jG7jabcSw_Z0dBJuUUV-54" value="" style="verticalLabelPosition=bottom;shadow=0;dashed=0;align=center;html=1;verticalAlign=top;strokeWidth=1;shape=mxgraph.mockup.graphics.simpleIcon;strokeColor=#999999;fontSize=13;fontColor=#0066CC;" parent="_jG7jabcSw_Z0dBJuUUV-43" vertex="1">
          <mxGeometry x="780" y="980" width="50" height="50" as="geometry" />
        </mxCell>
        <mxCell id="_jG7jabcSw_Z0dBJuUUV-55" value="" style="verticalLabelPosition=bottom;shadow=0;dashed=0;align=center;html=1;verticalAlign=top;strokeWidth=1;shape=mxgraph.mockup.graphics.simpleIcon;strokeColor=#999999;fontSize=13;fontColor=#0066CC;" parent="_jG7jabcSw_Z0dBJuUUV-43" vertex="1">
          <mxGeometry x="880" y="980" width="50" height="50" as="geometry" />
        </mxCell>
        <mxCell id="_jG7jabcSw_Z0dBJuUUV-56" value="" style="strokeWidth=1;shadow=0;dashed=0;align=center;html=1;shape=mxgraph.mockup.buttons.multiButton;fillColor=#008cff;strokeColor=#666666;mainText=;subText=;fontSize=13;fontColor=#0066CC;" parent="_jG7jabcSw_Z0dBJuUUV-43" vertex="1">
          <mxGeometry x="204" y="810" width="200" height="210" as="geometry" />
        </mxCell>
        <mxCell id="_jG7jabcSw_Z0dBJuUUV-57" value="These companies&lt;br&gt;trust us" style="strokeWidth=1;shadow=0;dashed=0;align=center;html=1;shape=mxgraph.mockup.anchor;fontSize=16;fontColor=#ffffff;fontStyle=1;whiteSpace=wrap;" parent="_jG7jabcSw_Z0dBJuUUV-56" vertex="1">
          <mxGeometry y="33.6" width="200" height="84" as="geometry" />
        </mxCell>
        <mxCell id="_jG7jabcSw_Z0dBJuUUV-58" value="" style="strokeWidth=1;shadow=0;dashed=0;align=center;html=1;shape=mxgraph.mockup.anchor;fontSize=12;fontColor=#ffffff;fontStyle=1;whiteSpace=wrap;" parent="_jG7jabcSw_Z0dBJuUUV-56" vertex="1">
          <mxGeometry y="126" width="200" height="42" as="geometry" />
        </mxCell>
        <mxCell id="_jG7jabcSw_Z0dBJuUUV-59" value="" style="verticalLabelPosition=bottom;shadow=0;dashed=0;align=center;html=1;verticalAlign=top;strokeWidth=1;shape=mxgraph.mockup.markup.line;strokeColor=#999999;fillColor=#008CFF;fontSize=13;fontColor=#0066CC;" parent="_jG7jabcSw_Z0dBJuUUV-43" vertex="1">
          <mxGeometry y="1180" width="1150" height="20" as="geometry" />
        </mxCell>
        <mxCell id="_jG7jabcSw_Z0dBJuUUV-60" value="" style="shape=rect;fillColor=#ffffff;strokeColor=#eeeeee;shadow=0;fontSize=13;fontColor=#0066CC;" parent="_jG7jabcSw_Z0dBJuUUV-43" vertex="1">
          <mxGeometry x="425" y="1230" width="300" height="40" as="geometry" />
        </mxCell>
        <mxCell id="_jG7jabcSw_Z0dBJuUUV-61" value="BUTTON" style="shape=rect;strokeColor=none;fillColor=none;fontSize=12;fontColor=#2196F3;dashed=0;" parent="_jG7jabcSw_Z0dBJuUUV-60" vertex="1">
          <mxGeometry width="75" height="40" as="geometry" />
        </mxCell>
        <mxCell id="_jG7jabcSw_Z0dBJuUUV-62" value="BUTTON" style="shape=rect;strokeColor=none;fillColor=none;fontSize=12;fontColor=#2196F3;dashed=0;" parent="_jG7jabcSw_Z0dBJuUUV-60" vertex="1">
          <mxGeometry x="75" width="75" height="40" as="geometry" />
        </mxCell>
        <mxCell id="_jG7jabcSw_Z0dBJuUUV-63" value="BUTTON" style="shape=rect;strokeColor=none;fillColor=none;fontSize=12;fontColor=#2196F3;dashed=0;" parent="_jG7jabcSw_Z0dBJuUUV-60" vertex="1">
          <mxGeometry x="150" width="75" height="40" as="geometry" />
        </mxCell>
        <mxCell id="_jG7jabcSw_Z0dBJuUUV-64" value="BUTTON" style="shape=rect;strokeColor=none;fillColor=none;fontSize=12;fontColor=#2196F3;dashed=0;" parent="_jG7jabcSw_Z0dBJuUUV-60" vertex="1">
          <mxGeometry x="225" width="75" height="40" as="geometry" />
        </mxCell>
        <mxCell id="_jG7jabcSw_Z0dBJuUUV-65" value="" style="shape=image;html=1;verticalAlign=top;verticalLabelPosition=bottom;labelBackgroundColor=#ffffff;imageAspect=0;aspect=fixed;image=https://cdn3.iconfinder.com/data/icons/peelicons-vol-1/50/LinkedIn-128.png;fillColor=#008CFF;fontSize=13;fontColor=#0066CC;" parent="_jG7jabcSw_Z0dBJuUUV-43" vertex="1">
          <mxGeometry x="870" y="1235" width="30" height="30" as="geometry" />
        </mxCell>
        <mxCell id="_jG7jabcSw_Z0dBJuUUV-66" value="" style="shape=image;html=1;verticalAlign=top;verticalLabelPosition=bottom;labelBackgroundColor=#ffffff;imageAspect=0;aspect=fixed;image=https://cdn3.iconfinder.com/data/icons/peelicons-vol-1/50/Facebook-128.png;fillColor=#008CFF;fontSize=13;fontColor=#0066CC;" parent="_jG7jabcSw_Z0dBJuUUV-43" vertex="1">
          <mxGeometry x="920" y="1235" width="30" height="30" as="geometry" />
        </mxCell>
        <mxCell id="_jG7jabcSw_Z0dBJuUUV-67" value="" style="shape=image;html=1;verticalAlign=top;verticalLabelPosition=bottom;labelBackgroundColor=#ffffff;imageAspect=0;aspect=fixed;image=https://cdn3.iconfinder.com/data/icons/peelicons-vol-1/50/Twitter-128.png;fillColor=#008CFF;fontSize=13;fontColor=#0066CC;" parent="_jG7jabcSw_Z0dBJuUUV-43" vertex="1">
          <mxGeometry x="970" y="1235" width="30" height="30" as="geometry" />
        </mxCell>
        <mxCell id="_jG7jabcSw_Z0dBJuUUV-68" value="&lt;font style=&quot;font-size: 36px;&quot;&gt;Сатурн&lt;/font&gt;" style="rounded=0;whiteSpace=wrap;html=1;align=left;" parent="_jG7jabcSw_Z0dBJuUUV-43" vertex="1">
          <mxGeometry y="50" width="1040" height="70" as="geometry" />
        </mxCell>
        <mxCell id="_jG7jabcSw_Z0dBJuUUV-69" value="&lt;font style=&quot;font-size: 36px;&quot;&gt;Афиша&lt;/font&gt;" style="rounded=0;whiteSpace=wrap;html=1;fillColor=light-dark(#FFFFFF,#4D4D4D);fillStyle=auto;" parent="_jG7jabcSw_Z0dBJuUUV-43" vertex="1">
          <mxGeometry x="470" y="55" width="240" height="60" as="geometry" />
        </mxCell>
        <mxCell id="_jG7jabcSw_Z0dBJuUUV-70" value="&lt;span style=&quot;font-size: 36px;&quot;&gt;Расписание&lt;/span&gt;" style="rounded=0;whiteSpace=wrap;html=1;fillColor=light-dark(#FFFFFF,#4D4D4D);fillStyle=auto;" parent="_jG7jabcSw_Z0dBJuUUV-43" vertex="1">
          <mxGeometry x="740" y="55" width="240" height="60" as="geometry" />
        </mxCell>
        <mxCell id="_jG7jabcSw_Z0dBJuUUV-72" value="" style="strokeWidth=1;shadow=0;dashed=0;align=center;html=1;shape=mxgraph.mockup.containers.browserWindow;rSize=0;strokeColor2=#008cff;strokeColor3=#c4c4c4;mainText=,;recursiveResize=0;strokeColor=none;fontColor=#FFFFFF;gradientColor=none;fillColor=light-dark(#FFFFFF,#FFFFFF);" parent="1" vertex="1">
          <mxGeometry x="160" y="1130" width="1040" height="660" as="geometry" />
        </mxCell>
        <mxCell id="_jG7jabcSw_Z0dBJuUUV-73" value="Главное окно" style="strokeWidth=1;shadow=0;dashed=0;align=center;html=1;shape=mxgraph.mockup.containers.anchor;fontSize=17;fontColor=#666666;align=left;" parent="_jG7jabcSw_Z0dBJuUUV-72" vertex="1">
          <mxGeometry x="60" y="12" width="110" height="26" as="geometry" />
        </mxCell>
        <mxCell id="_jG7jabcSw_Z0dBJuUUV-74" value="" style="verticalLabelPosition=bottom;shadow=0;dashed=0;align=center;html=1;verticalAlign=top;strokeWidth=1;shape=mxgraph.mockup.containers.videoPlayer;strokeColor=#666666;strokeColor2=#008cff;strokeColor3=#c4c4c4;textColor=#666666;fillColor2=#008cff;barHeight=30;barPos=20;gradientColor=none;fillColor=light-dark(#FFFFFF,#FFFFFF);" parent="_jG7jabcSw_Z0dBJuUUV-72" vertex="1">
          <mxGeometry y="110" width="1040" height="590" as="geometry" />
        </mxCell>
        <mxCell id="_jG7jabcSw_Z0dBJuUUV-75" value="" style="verticalLabelPosition=bottom;shadow=0;dashed=0;align=center;html=1;verticalAlign=top;strokeWidth=1;shape=mxgraph.mockup.markup.line;strokeColor=#999999;fillColor=#008CFF;fontSize=13;fontColor=#0066CC;" parent="_jG7jabcSw_Z0dBJuUUV-72" vertex="1">
          <mxGeometry y="1180" width="1150" height="20" as="geometry" />
        </mxCell>
        <mxCell id="_jG7jabcSw_Z0dBJuUUV-76" value="&lt;font style=&quot;font-size: 36px; color: light-dark(rgb(0, 0, 0), rgb(0, 0, 0));&quot;&gt;Сатурн&lt;/font&gt;" style="rounded=0;whiteSpace=wrap;html=1;align=left;fillColor=light-dark(#FFFFFF,#FFFFFF);" parent="_jG7jabcSw_Z0dBJuUUV-72" vertex="1">
          <mxGeometry width="1040" height="110" as="geometry" />
        </mxCell>
        <mxCell id="_jG7jabcSw_Z0dBJuUUV-78" value="&lt;font style=&quot;font-size: 24px;&quot;&gt;Добавить кинодеятеля&lt;/font&gt;" style="rounded=0;whiteSpace=wrap;html=1;fillColor=light-dark(#FFFFFF,#4D4D4D);fillStyle=auto;" parent="_jG7jabcSw_Z0dBJuUUV-72" vertex="1">
          <mxGeometry x="750" width="290" height="80" as="geometry" />
        </mxCell>
        <mxCell id="_jG7jabcSw_Z0dBJuUUV-79" value="" style="rounded=0;whiteSpace=wrap;html=1;strokeColor=light-dark(#000000,#FFFFFF);fillColor=light-dark(#FFFFFF,#FFFFFF);" parent="_jG7jabcSw_Z0dBJuUUV-72" vertex="1">
          <mxGeometry y="660" width="1040" height="40" as="geometry" />
        </mxCell>
        <mxCell id="_jG7jabcSw_Z0dBJuUUV-82" value="&lt;font style=&quot;font-size: 24px;&quot;&gt;Добавить фильм&lt;/font&gt;" style="rounded=0;whiteSpace=wrap;html=1;fillColor=light-dark(#FFFFFF,#4D4D4D);fillStyle=auto;" parent="_jG7jabcSw_Z0dBJuUUV-72" vertex="1">
          <mxGeometry x="150" width="300" height="80" as="geometry" />
        </mxCell>
        <mxCell id="_jG7jabcSw_Z0dBJuUUV-77" value="&lt;font style=&quot;font-size: 24px;&quot;&gt;Добавить расписание&lt;/font&gt;" style="rounded=0;whiteSpace=wrap;html=1;fillColor=light-dark(#FFFFFF,#4D4D4D);fillStyle=auto;" parent="_jG7jabcSw_Z0dBJuUUV-72" vertex="1">
          <mxGeometry x="450" width="300" height="80" as="geometry" />
        </mxCell>
      </root>
    </mxGraphModel>
  </diagram>
</mxfile>
